Coordinates
version=1
nRows=26
nColumns=22
inDegrees=yes

Units are S.I. units (second, meters, Newtons, ...)
If the header above contains a line with 'inDegrees', this indicates whether rotational values are in degrees (yes) or radians (no).

endheader
time	pelvis_tilt	pelvis_list	pelvis_rotation	pelvis_tx	pelvis_ty	pelvis_tz	hip_flexion_r	hip_adduction_r	hip_rotation_r	knee_angle_r	ankle_angle_r	subtalar_angle_r	hip_flexion_l	hip_adduction_l	hip_rotation_l	knee_angle_l	ankle_angle_l	subtalar_angle_l	lumbar_extension	lumbar_bending	lumbar_rotation
      2.11000000	      5.78201474	     -1.97795871	     49.88768807	      0.59147502	      1.01157548	      0.45882804	     -4.72965542	      7.69305463	    -11.51947124	    -11.49718076	     12.52358584	      0.84873077	     21.37183570	     -9.89978696	    -14.91574164	    -38.75191803	     11.84830831	      0.40661659	    -18.37924136	      5.90834600	      6.35804791
      2.12000000	      5.78708094	     -1.84917551	     50.50457417	      0.59396570	      1.01111578	      0.45491318	     -5.34727072	      7.72982799	    -12.03298021	    -11.05626407	     12.65400581	      0.86818562	     21.63353144	     -9.77383449	    -16.10319315	    -37.41742448	     11.69003035	      0.61357934	    -18.48701701	      5.87976670	      6.32275809
      2.13000000	      5.81906302	     -1.72744546	     51.12046327	      0.59643151	      1.01058354	      0.45092056	     -5.97633009	      7.80189110	    -12.50107000	    -10.62613994	     12.78994536	      0.88923218	     21.85978664	     -9.65224556	    -17.26243012	    -36.08303696	     11.55206445	      0.86822931	    -18.60516272	      5.87917378	      6.25756864
      2.14000000	      5.81275110	     -1.64375456	     51.72970898	      0.59883041	      1.00989943	      0.44685859	     -6.51630415	      7.86222085	    -12.99605415	    -10.25742848	     12.93278331	      0.90574751	     22.11568040	     -9.48428351	    -18.34563913	    -34.73387087	     11.37198433	      1.08714640	    -18.66024757	      5.86975925	      6.22165678
      2.15000000	      5.81656372	     -1.56813017	     52.32671040	      0.60119611	      1.00914097	      0.44271855	     -7.03456875	      7.93311729	    -13.47378205	     -9.93781711	     13.09381852	      0.93853621	     22.34750489	     -9.30901082	    -19.38665212	    -33.39489599	     11.18718537	      1.29681652	    -18.71348990	      5.87338892	      6.17465521
      2.16000000	      5.84253994	     -1.49410808	     52.90740801	      0.60353936	      1.00833242	      0.43850241	     -7.55079563	      8.02113696	    -13.91162841	     -9.65574684	     13.28746828	      1.00860603	     22.54335280	     -9.13718203	    -20.37513769	    -32.07773379	     11.01316374	      1.49679341	    -18.78234377	      5.89466034	      6.12663371
      2.17000000	      5.83963025	     -1.46827683	     53.46159846	      0.60586669	      1.00738120	      0.43422964	     -7.95793571	      8.10060883	    -14.36601087	     -9.47374302	     13.49387711	      1.07264379	     22.77675156	     -8.95410013	    -21.28411786	    -30.78736064	     10.80357595	      1.59374374	    -18.78173914	      5.91213874	      6.13632203
      2.18000000	      5.85755080	     -1.43470739	     53.98780521	      0.60818917	      1.00641121	      0.42987345	     -8.35573416	      8.18088064	    -14.79112578	     -9.35882685	     13.72418748	      1.16625778	     22.96368063	     -8.77840831	    -22.14165143	    -29.53466648	     10.60912622	      1.63831395	    -18.80257252	      5.93599502	      6.15679699
      2.19000000	      5.90629746	     -1.38835782	     54.48444901	      0.61053103	      1.00544798	      0.42543227	     -8.76193536	      8.26962083	    -15.17436711	     -9.29753456	     13.95867901	      1.32153719	     23.09508726	     -8.62188135	    -22.93862374	    -28.33176220	     10.44632966	      1.61129849	    -18.85421035	      5.96909753	      6.18970532
      2.20000000	      5.94137786	     -1.37427362	     54.94421076	      0.61288130	      1.00440604	      0.42093191	     -9.07822382	      8.34611525	    -15.55057119	     -9.34755179	     14.20945833	      1.44520443	     23.23671404	     -8.46587458	    -23.62473411	    -27.17424808	     10.30071063	      1.53975126	    -18.86438393	      5.99583172	      6.28257569
      2.21000000	      6.00202212	     -1.35080758	     55.37187563	      0.61527050	      1.00338279	      0.41633809	     -9.39503360	      8.42601487	    -15.89101944	     -9.45707230	     14.45232608	      1.59981399	     23.32683015	     -8.32840762	    -24.22046585	    -26.07664103	     10.21196945	      1.43164915	    -18.89609365	      6.02841690	      6.39074209
      2.22000000	      6.08659966	     -1.31921952	     55.76912632	      0.61769138	      1.00238524	      0.41164099	     -9.71483627	      8.50923115	    -16.19322772	     -9.61712997	     14.67813626	      1.79456577	     23.36561488	     -8.20511791	    -24.70479867	    -25.04084788	     10.18338042	      1.30138590	    -18.94570955	      6.06434766	      6.52080245
      2.23000000	      6.18532148	     -1.28770523	     56.13680908	      0.62015790	      1.00139865	      0.40683739	    -10.02318956	      8.59170087	    -16.46490386	     -9.83148753	     14.88863493	      2.00452192	     23.36422283	     -8.09268129	    -25.06663125	    -24.07265634	     10.21935254	      1.18442572	    -18.99537075	      6.09993774	      6.66931272
      2.24000000	      6.30115255	     -1.25139168	     56.47710738	      0.62265395	      1.00044450	      0.40192126	    -10.33436002	      8.67404587	    -16.69939187	    -10.08334926	     15.06891834	      2.25283007	     23.31147979	     -7.98564153	    -25.29510063	    -23.16810417	     10.30658092	      1.08351151	    -19.05589548	      6.13752874	      6.83441824
      2.25000000	      6.41715833	     -1.21242210	     56.80057078	      0.62520522	      0.99950066	      0.39684645	    -10.64777891	      8.74767151	    -16.90255653	    -10.35696648	     15.23402832	      2.51962492	     23.21938318	     -7.87369559	    -25.40274515	    -22.34766886	     10.41670484	      1.00854097	    -19.09730627	      6.16479270	      7.00013497
      2.26000000	      6.52136322	     -1.18048607	     57.10943674	      0.62780811	      0.99854044	      0.39163352	    -10.94234506	      8.80776856	    -17.08040766	    -10.66029576	     15.40627396	      2.75973955	     23.10548021	     -7.75500922	    -25.40276590	    -21.62547808	     10.54743944	      0.95278414	    -19.10996296	      6.17477674	      7.13656371
      2.27000000	      6.61956672	     -1.13230813	     57.40286038	      0.63045012	      0.99763403	      0.38624546	    -11.25705265	      8.84631198	    -17.22106690	    -10.96697556	     15.53684923	      3.06760669	     22.93473032	     -7.61904654	    -25.30035671	    -20.99773326	     10.58034531	      0.86649550	    -19.11570248	      6.16475582	      7.27751006
      2.28000000	      6.70377593	     -1.07816813	     57.67704093	      0.63317648	      0.99675754	      0.38068134	    -11.58107185	      8.86324739	    -17.33915844	    -11.27365241	     15.63506283	      3.43824756	     22.73264458	     -7.48512336	    -25.16233771	    -20.50764706	     10.49696558	      0.70581100	    -19.09616702	      6.12316505	      7.41708794
      2.29000000	      6.77170817	     -1.01620323	     57.92988097	      0.63597091	      0.99590998	      0.37491428	    -11.90655982	      8.84952871	    -17.43322280	    -11.60056452	     15.70429112	      3.85966589	     22.50651200	     -7.35644377	    -25.01381337	    -20.18115131	     10.31848387	      0.41647004	    -19.04952644	      6.05366914	      7.54888409
      2.30000000	      6.81649131	     -0.95035764	     58.17235790	      0.63881277	      0.99509902	      0.36894108	    -12.23362795	      8.80970896	    -17.47418124	    -11.93005698	     15.76841207	      4.29267942	     22.27138124	     -7.22741159	    -24.86329855	    -20.02228469	      9.96389132	     -0.01644355	    -18.96846146	      5.95627512	      7.64011138
      2.31000000	      6.81708668	     -0.86242650	     58.40895964	      0.64168118	      0.99435058	      0.36275317	    -12.54523442	      8.70600603	    -17.51282496	    -12.30283410	     15.79064017	      4.72111652	     22.02786739	     -7.07341162	    -24.74602303	    -20.03182704	      9.46242712	     -0.56649531	    -18.86081496	      5.79896692	      7.67768034
      2.32000000	      6.80315482	     -0.76384181	     58.63569203	      0.64459436	      0.99368776	      0.35635841	    -12.87069479	      8.57978322	    -17.50623391	    -12.67253958	     15.77473622	      5.20579645	     21.79071591	     -6.93944521	    -24.67142571	    -20.22968548	      8.85016491	     -1.28632055	    -18.73486265	      5.61668742	      7.69778368
      2.33000000	      6.76995893	     -0.64932287	     58.86962766	      0.64752680	      0.99312646	      0.34975747	    -13.20265383	      8.42510406	    -17.49245299	    -13.05373268	     15.72498324	      5.73460092	     21.56706121	     -6.81094390	    -24.61764151	    -20.59280564	      8.20553639	     -2.12639759	    -18.59318602	      5.40425680	      7.69294323
      2.34000000	      6.70395405	     -0.51429606	     59.11066687	      0.65042811	      0.99269432	      0.34297021	    -13.51752169	      8.22062970	    -17.46537250	    -13.48134438	     15.62008812	      6.28887694	     21.35730355	     -6.65945273	    -24.54348123	    -21.07357773	      7.59067671	     -2.97990683	    -18.44190739	      5.15642855	      7.63541403
      2.35000000	      6.60706441	     -0.35658213	     59.36938886	      0.65327447	      0.99240899	      0.33601218	    -13.81253106	      7.96950250	    -17.43626598	    -13.96142106	     15.45980190	      6.89356695	     21.15938133	     -6.47041762	    -24.40356276	    -21.63257863	      7.07413254	     -3.81905340	    -18.28726625	      4.87395008	      7.53521734
      2.36000000	      6.48068704	     -0.18043046	     59.64745548	      0.65603976	      0.99227766	      0.32889872	    -14.07543482	      7.67283093	    -17.41037864	    -14.50769064	     15.23705627	      7.55116362	     20.97168311	     -6.23306854	    -24.16578310	    -22.23142967	      6.68803295	     -4.60736869	    -18.13148323	      4.56465903	      7.40514892
